<?xml version="1.0" encoding="utf-8"?>
<svg xmlns="http://www.w3.org/2000/svg">
<symbol id="icon-alert" viewBox="0 0 16 16">
<path d="M8.00016 14.6667C4.31826 14.6667 1.3335 11.6819 1.3335 8.00004C1.3335 4.31814 4.31826 1.33337 8.00016 1.33337C11.682 1.33337 14.6668 4.31814 14.6668 8.00004C14.6668 11.6819 11.682 14.6667 8.00016 14.6667ZM8.00016 13.3334C10.9457 13.3334 13.3335 10.9456 13.3335 8.00004C13.3335 5.05452 10.9457 2.66671 8.00016 2.66671C5.05464 2.66671 2.66683 5.05452 2.66683 8.00004C2.66683 10.9456 5.05464 13.3334 8.00016 13.3334ZM7.3335 10H8.66683V11.3334H7.3335V10ZM7.3335 4.66671H8.66683V8.66671H7.3335V4.66671Z"/>

</symbol>
<symbol id="icon-chevron-right" viewBox="0 0 16 16">
<path d="M8.78101 8.00047L5.4812 4.70062L6.42401 3.75781L10.6667 8.00047L6.42401 12.2431L5.4812 11.3003L8.78101 8.00047Z"/>

</symbol></svg>